<svg width="736" height="147" viewBox="0 0 736 147" fill="none" xmlns="http://www.w3.org/2000/svg">
<g clip-path="url(#clip0_704_613)">
<path d="M227.622 37.5748C225.534 35.4868 222.945 34.4279 219.927 34.4279C217.108 34.4279 214.552 35.5529 212.532 37.6821C210.553 39.7725 209.548 42.2634 209.548 45.0872V111.292C209.548 113.253 209.183 115.129 208.46 116.872C207.743 118.604 206.715 120.127 205.408 121.397C204.083 122.679 202.521 123.72 200.766 124.493C197.448 125.951 193.263 126.065 189.723 124.557C188.01 123.83 186.495 122.856 185.218 121.66C183.957 120.483 182.93 119.024 182.167 117.326C181.409 115.639 181.025 113.844 181.025 111.988V108.452C181.025 105.617 179.966 103.118 177.878 101.022C175.789 98.933 173.2 97.874 170.183 97.874C167.365 97.874 164.808 98.9991 162.789 101.129C160.808 103.217 159.804 105.71 159.804 108.532L159.798 112.077C159.893 116.855 160.841 121.414 162.618 125.628C164.393 129.84 166.877 133.579 170.001 136.742C173.129 139.91 176.854 142.437 181.074 144.253C185.303 146.076 189.978 147 194.969 147C199.577 147 204.053 146.151 208.273 144.475C212.495 142.803 216.246 140.421 219.423 137.395C222.593 134.376 225.172 130.76 227.092 126.645C228.767 123.052 230.765 117.664 230.765 112.405V45.0037C230.765 42.1698 229.706 39.6702 227.619 37.5748H227.622Z" fill="#0097F6"/>
<path d="M309.895 37.45C307.954 35.4569 305.541 34.3942 302.675 34.2894C299.87 34.2894 297.415 35.2161 295.376 37.0447C293.302 38.9094 292.251 41.3067 292.251 44.1705V90.404C292.251 92.361 291.884 94.2382 291.163 95.9819C290.442 97.7194 289.416 99.2423 288.109 100.508C286.785 101.791 285.223 102.832 283.467 103.604C280.15 105.063 275.962 105.177 272.424 103.669C270.712 102.942 269.197 101.968 267.919 100.771C266.657 99.594 265.631 98.136 264.867 96.4371C264.11 94.7508 263.725 92.9559 263.725 91.1V44.5871C263.725 41.8355 262.663 39.4046 260.567 37.3577C258.481 35.3209 256.036 34.2881 253.301 34.2881C250.583 34.2881 248.15 35.2398 246.07 37.1158C243.951 39.0241 242.876 41.3977 242.876 44.1692V90.4264C242.971 95.2036 243.915 99.7624 245.685 103.976C247.451 108.188 249.926 111.927 253.038 115.089C256.152 118.256 259.862 120.783 264.069 122.6C268.283 124.424 272.94 125.348 277.914 125.348H277.919C282.511 125.348 286.97 124.498 291.172 122.824C295.377 121.15 299.114 118.767 302.28 115.743C305.435 112.727 308.006 109.111 309.919 104.992C311.841 100.855 312.817 96.3199 312.817 91.5141V44.5858C312.817 41.8492 311.831 39.4482 309.89 37.4488L309.895 37.45Z" fill="#0097F6"/>
<path d="M421.568 63.7742C421.471 59.8278 420.64 56.0397 419.099 52.5111C417.559 49 415.439 45.8518 412.797 43.1564C410.15 40.4598 407.004 38.2857 403.447 36.6942C399.872 35.0976 396.005 34.2881 391.954 34.2881C388.485 34.2881 385.017 34.923 381.645 36.1766C378.598 37.3103 375.829 38.9755 373.4 41.1321C370.857 39.1501 368.113 37.561 365.232 36.3986C362.002 35.0951 358.416 34.3854 354.575 34.2894H354.546C350.497 34.2894 346.703 35.0502 343.269 36.5507C339.839 38.0512 336.803 40.1604 334.249 42.8172C331.698 45.4689 329.626 48.6158 328.093 52.1681C326.561 55.7154 325.638 59.6008 325.349 63.8041V115.052C325.349 117.973 326.353 120.51 328.333 122.594C330.33 124.7 332.832 125.767 335.773 125.767C338.804 125.767 341.353 124.701 343.351 122.594C345.332 120.507 346.336 117.969 346.336 115.052V64.7795C346.336 62.5144 347.142 60.646 348.8 59.0682C350.475 57.4716 352.355 56.6958 354.547 56.6958C356.739 56.6958 358.616 57.4716 360.294 59.0682C361.952 60.6485 362.758 62.5169 362.758 64.7795V86.8055C362.758 89.7292 363.789 92.2712 365.823 94.3604C367.866 96.4583 370.434 97.5223 373.46 97.5223C376.393 97.5223 378.916 96.4571 380.957 94.3604C382.991 92.2712 384.023 89.7292 384.023 86.8055V64.7795C384.023 62.502 384.79 60.6273 386.369 59.0457C387.95 57.4629 389.777 56.6946 391.955 56.6946C394.319 56.6946 396.237 57.4629 397.819 59.0457C399.398 60.6273 400.166 62.502 400.166 64.7795V115.053C400.166 117.987 401.225 120.532 403.311 122.618C405.397 124.708 407.94 125.767 410.867 125.767C413.695 125.767 416.212 124.711 418.342 122.628C420.483 120.536 421.569 117.987 421.569 115.052V63.7742H421.568Z" fill="#0097F6"/>
<path d="M501.077 55.3625C499.217 51.1578 496.674 47.4234 493.519 44.2628C490.364 41.1034 486.632 38.5776 482.423 36.7566C478.2 34.9343 473.684 34.01 468.998 34.01H468.701L468.676 34.0237C463.908 34.242 459.38 35.2798 455.214 37.1095C450.965 38.9742 447.235 41.4988 444.126 44.6133C441.012 47.7315 438.535 51.4247 436.768 55.5895C434.995 59.7604 434.096 64.3043 434.096 69.0977V115.193C434.096 118.123 435.131 120.643 437.173 122.69C439.214 124.735 441.78 125.771 444.798 125.771C447.631 125.771 450.103 124.735 452.146 122.69C454.188 120.643 455.221 118.121 455.221 115.193V101.208L455.452 101.307C459.662 103.032 464.22 103.906 468.997 103.906C473.874 103.906 478.485 102.982 482.702 101.158C486.906 99.3421 490.616 96.8151 493.734 93.6457C496.839 90.4875 499.334 86.7756 501.149 82.6171C502.972 78.4374 503.896 73.8898 503.896 69.0977C503.896 64.212 502.948 59.592 501.077 55.3637V55.3625ZM483.327 69.0964C483.327 71.0484 482.941 72.9181 482.18 74.6519C481.408 76.4131 480.368 77.9772 479.087 79.3018C477.818 80.6152 476.289 81.6692 474.546 82.4375C471.083 83.9642 466.901 83.9642 463.527 82.4425C461.819 81.6729 460.284 80.6102 458.961 79.2881C457.64 77.966 456.583 76.4068 455.814 74.6531C455.053 72.9194 454.668 71.0497 454.668 69.0977C454.668 67.0534 455.054 65.1375 455.814 63.4025C456.582 61.6538 457.635 60.1234 458.947 58.8536C460.265 57.5777 461.798 56.5599 463.503 55.8339C465.189 55.118 467.028 54.7538 468.973 54.75C473.118 54.9296 476.427 56.3541 479.088 59.1043C481.766 61.8746 483.155 65.1612 483.328 69.0989L483.327 69.0964Z" fill="#0097F6"/>
<path d="M580.237 37.45C578.296 35.4569 575.883 34.3942 573.018 34.2894C570.212 34.2894 567.755 35.2161 565.721 37.0447C563.646 38.9081 562.594 41.3067 562.594 44.1705V90.404C562.594 92.3647 562.229 94.2419 561.507 95.9819C560.787 97.7194 559.761 99.2411 558.454 100.508C557.132 101.789 555.57 102.831 553.813 103.604C550.491 105.063 546.309 105.177 542.77 103.669C541.058 102.942 539.542 101.968 538.266 100.771C537.004 99.5953 535.977 98.136 535.215 96.4371C534.458 94.7508 534.073 92.9559 534.073 91.1V44.5871C534.073 41.8368 533.01 39.4046 530.915 37.3565C528.828 35.3209 526.383 34.2881 523.649 34.2881C520.929 34.2881 518.497 35.2398 516.418 37.1158C514.299 39.0241 513.225 41.3977 513.225 44.1692V90.4264C513.319 95.2048 514.264 99.7637 516.034 103.976C517.803 108.189 520.277 111.929 523.387 115.089C526.501 118.257 530.213 120.784 534.419 122.6C538.634 124.424 543.292 125.348 548.263 125.348C552.857 125.348 557.316 124.498 561.519 122.824C565.722 121.151 569.461 118.769 572.627 115.743C575.783 112.727 578.354 109.11 580.266 104.992C582.189 100.855 583.165 96.3199 583.165 91.5141V44.5858C583.165 41.8492 582.181 39.4482 580.237 37.4488V37.45Z" fill="#0097F6"/>
<path d="M699.28 37.45C697.338 35.4569 694.925 34.3942 692.06 34.2894C689.254 34.2894 686.799 35.2161 684.762 37.0447C682.688 38.9081 681.636 41.3054 681.636 44.1705V90.404C681.636 92.3635 681.27 94.2407 680.548 95.9831C679.83 97.7194 678.803 99.2411 677.497 100.508C676.171 101.791 674.609 102.832 672.853 103.604C669.535 105.062 665.348 105.176 661.812 103.669C660.1 102.942 658.585 101.968 657.308 100.771C656.046 99.5953 655.02 98.136 654.257 96.4371C653.499 94.7483 653.114 92.9534 653.114 91.1V44.5871C653.114 41.8355 652.051 39.4033 649.958 37.3565C647.87 35.3209 645.425 34.2881 642.691 34.2881C639.973 34.2881 637.54 35.2398 635.459 37.1158C633.341 39.0241 632.268 41.399 632.268 44.1692V90.4264C632.361 95.2048 633.306 99.7637 635.076 103.976C636.845 108.189 639.319 111.929 642.429 115.089C645.543 118.257 649.255 120.784 653.461 122.6C657.675 124.424 662.333 125.348 667.305 125.348C671.899 125.348 676.359 124.498 680.559 122.824C684.765 121.151 688.503 118.769 691.669 115.743C694.825 112.727 697.396 109.11 699.31 104.992C701.231 100.854 702.206 96.3186 702.206 91.5141V44.5858C702.206 41.848 701.222 39.447 699.28 37.4488V37.45Z" fill="#0097F6"/>
<path d="M732.933 37.5873C730.892 35.4906 728.417 34.4279 725.576 34.4279C722.55 34.4279 719.98 35.4918 717.937 37.5885C715.905 39.679 714.873 42.1748 714.873 45.0037V115.19C714.873 118.12 715.908 120.642 717.95 122.688C719.991 124.732 722.556 125.769 725.576 125.769C728.409 125.769 730.882 124.732 732.922 122.688C734.965 120.641 736 118.119 736 115.19V45.0037C736 42.1736 734.969 39.679 732.933 37.5873Z" fill="#0097F6"/>
<path d="M109.319 92.3834C113.255 71.3865 76.9022 21.229 44.0208 0C54.8065 31.1824 61.0345 67.9776 44.0208 92.3834C59.7889 76.085 87.1921 80.4506 109.319 92.3834Z" fill="#0097F6"/>
<path d="M109.319 92.3834H0C2.32554 104.047 26.702 126.346 53.4961 125.972C80.2915 125.599 106.528 104.046 109.319 92.3834Z" fill="#0097F6"/>
<path d="M41.4013 0V92.3834H0L41.4013 0Z" fill="#0097F6"/>
</g>
<defs>
<clipPath id="clip0_704_613">
<rect width="736" height="147" fill="white"/>
</clipPath>
</defs>
</svg>
