<svg width="816" height="227" viewBox="0 0 816 227" fill="none" xmlns="http://www.w3.org/2000/svg">
<g clip-path="url(#clip0_1519_1868)">
<path d="M267.622 77.5748C265.534 75.4868 262.945 74.4279 259.927 74.4279C257.108 74.4279 254.552 75.5529 252.532 77.6821C250.553 79.7725 249.548 82.2634 249.548 85.0872V151.292C249.548 153.253 249.183 155.129 248.46 156.872C247.743 158.604 246.715 160.127 245.408 161.397C244.083 162.679 242.521 163.72 240.766 164.493C237.448 165.951 233.263 166.065 229.723 164.557C228.01 163.83 226.495 162.856 225.218 161.66C223.957 160.483 222.93 159.024 222.167 157.326C221.409 155.639 221.025 153.844 221.025 151.988V148.452C221.025 145.617 219.966 143.118 217.878 141.022C215.789 138.933 213.2 137.874 210.183 137.874C207.365 137.874 204.808 138.999 202.789 141.129C200.808 143.217 199.804 145.71 199.804 148.532L199.798 152.077C199.893 156.855 200.841 161.414 202.618 165.628C204.393 169.84 206.877 173.579 210.001 176.742C213.129 179.91 216.854 182.437 221.074 184.253C225.303 186.076 229.978 187 234.969 187C239.577 187 244.053 186.151 248.273 184.475C252.495 182.803 256.246 180.421 259.423 177.395C262.593 174.376 265.172 170.76 267.092 166.645C268.767 163.052 270.765 157.664 270.765 152.405V85.0037C270.765 82.1698 269.706 79.6702 267.619 77.5748H267.622Z" fill="#0097F6"/>
<path d="M349.895 77.45C347.954 75.4569 345.541 74.3942 342.675 74.2894C339.87 74.2894 337.415 75.2161 335.376 77.0447C333.302 78.9094 332.251 81.3067 332.251 84.1705V130.404C332.251 132.361 331.884 134.238 331.163 135.982C330.442 137.719 329.416 139.242 328.109 140.508C326.785 141.791 325.223 142.832 323.467 143.604C320.15 145.063 315.962 145.177 312.424 143.669C310.712 142.942 309.197 141.968 307.919 140.771C306.657 139.594 305.631 138.136 304.867 136.437C304.11 134.751 303.725 132.956 303.725 131.1V84.5871C303.725 81.8355 302.663 79.4046 300.567 77.3577C298.481 75.3209 296.036 74.2881 293.301 74.2881C290.583 74.2881 288.15 75.2398 286.07 77.1158C283.951 79.0241 282.876 81.3977 282.876 84.1692V130.426C282.971 135.204 283.915 139.762 285.685 143.976C287.451 148.188 289.926 151.927 293.038 155.089C296.152 158.256 299.862 160.783 304.069 162.6C308.283 164.424 312.94 165.348 317.914 165.348H317.919C322.511 165.348 326.97 164.498 331.172 162.824C335.377 161.15 339.114 158.767 342.28 155.743C345.435 152.727 348.006 149.111 349.919 144.992C351.841 140.855 352.817 136.32 352.817 131.514V84.5858C352.817 81.8492 351.831 79.4482 349.89 77.4488L349.895 77.45Z" fill="#0097F6"/>
<path d="M461.568 103.774C461.471 99.8278 460.64 96.0397 459.099 92.5111C457.559 89 455.439 85.8518 452.797 83.1564C450.15 80.4598 447.004 78.2857 443.447 76.6942C439.872 75.0976 436.005 74.2881 431.954 74.2881C428.485 74.2881 425.017 74.923 421.645 76.1766C418.598 77.3103 415.829 78.9755 413.4 81.1321C410.857 79.1501 408.113 77.561 405.232 76.3986C402.002 75.0951 398.416 74.3854 394.575 74.2894H394.546C390.497 74.2894 386.703 75.0502 383.269 76.5507C379.839 78.0512 376.803 80.1604 374.249 82.8172C371.698 85.4689 369.626 88.6158 368.093 92.1681C366.561 95.7154 365.638 99.6008 365.349 103.804V155.052C365.349 157.973 366.353 160.51 368.333 162.594C370.33 164.7 372.832 165.767 375.773 165.767C378.804 165.767 381.353 164.701 383.351 162.594C385.332 160.507 386.336 157.969 386.336 155.052V104.78C386.336 102.514 387.142 100.646 388.8 99.0682C390.475 97.4716 392.355 96.6958 394.547 96.6958C396.739 96.6958 398.616 97.4716 400.294 99.0682C401.952 100.648 402.758 102.517 402.758 104.78V126.806C402.758 129.729 403.789 132.271 405.823 134.36C407.866 136.458 410.434 137.522 413.46 137.522C416.393 137.522 418.916 136.457 420.957 134.36C422.991 132.271 424.023 129.729 424.023 126.806V104.78C424.023 102.502 424.79 100.627 426.369 99.0457C427.95 97.4629 429.777 96.6946 431.955 96.6946C434.319 96.6946 436.237 97.4629 437.819 99.0457C439.398 100.627 440.166 102.502 440.166 104.78V155.053C440.166 157.987 441.225 160.532 443.311 162.618C445.397 164.708 447.94 165.767 450.867 165.767C453.695 165.767 456.212 164.711 458.342 162.628C460.483 160.536 461.569 157.987 461.569 155.052V103.774H461.568Z" fill="#0097F6"/>
<path d="M541.077 95.3625C539.217 91.1578 536.674 87.4234 533.519 84.2628C530.364 81.1034 526.632 78.5776 522.423 76.7566C518.2 74.9343 513.684 74.01 508.998 74.01H508.701L508.676 74.0237C503.908 74.242 499.38 75.2798 495.214 77.1095C490.965 78.9742 487.235 81.4988 484.126 84.6133C481.012 87.7315 478.535 91.4247 476.768 95.5895C474.995 99.7604 474.096 104.304 474.096 109.098V155.193C474.096 158.123 475.131 160.643 477.173 162.69C479.214 164.735 481.78 165.771 484.798 165.771C487.631 165.771 490.103 164.735 492.146 162.69C494.188 160.643 495.221 158.121 495.221 155.193V141.208L495.452 141.307C499.662 143.032 504.22 143.906 508.997 143.906C513.874 143.906 518.485 142.982 522.702 141.158C526.906 139.342 530.616 136.815 533.734 133.646C536.839 130.488 539.334 126.776 541.149 122.617C542.972 118.437 543.896 113.89 543.896 109.098C543.896 104.212 542.948 99.592 541.077 95.3637V95.3625ZM523.327 109.096C523.327 111.048 522.941 112.918 522.18 114.652C521.408 116.413 520.368 117.977 519.087 119.302C517.818 120.615 516.289 121.669 514.546 122.438C511.083 123.964 506.901 123.964 503.527 122.442C501.819 121.673 500.284 120.61 498.961 119.288C497.64 117.966 496.583 116.407 495.814 114.653C495.053 112.919 494.668 111.05 494.668 109.098C494.668 107.053 495.054 105.138 495.814 103.403C496.582 101.654 497.635 100.123 498.947 98.8536C500.265 97.5777 501.798 96.5599 503.503 95.8339C505.189 95.118 507.028 94.7538 508.973 94.75C513.118 94.9296 516.427 96.3541 519.088 99.1043C521.766 101.875 523.155 105.161 523.328 109.099L523.327 109.096Z" fill="#0097F6"/>
<path d="M620.237 77.45C618.296 75.4569 615.883 74.3942 613.018 74.2894C610.212 74.2894 607.755 75.2161 605.721 77.0447C603.646 78.9081 602.594 81.3067 602.594 84.1705V130.404C602.594 132.365 602.229 134.242 601.507 135.982C600.787 137.719 599.761 139.241 598.454 140.508C597.132 141.789 595.57 142.831 593.813 143.604C590.491 145.063 586.309 145.177 582.77 143.669C581.058 142.942 579.542 141.968 578.266 140.771C577.004 139.595 575.977 138.136 575.215 136.437C574.458 134.751 574.073 132.956 574.073 131.1V84.5871C574.073 81.8368 573.01 79.4046 570.915 77.3565C568.828 75.3209 566.383 74.2881 563.649 74.2881C560.929 74.2881 558.497 75.2398 556.418 77.1158C554.299 79.0241 553.225 81.3977 553.225 84.1692V130.426C553.319 135.205 554.264 139.764 556.034 143.976C557.803 148.189 560.277 151.929 563.387 155.089C566.501 158.257 570.213 160.784 574.419 162.6C578.634 164.424 583.292 165.348 588.263 165.348C592.857 165.348 597.316 164.498 601.519 162.824C605.722 161.151 609.461 158.769 612.627 155.743C615.783 152.727 618.354 149.11 620.266 144.992C622.189 140.855 623.165 136.32 623.165 131.514V84.5858C623.165 81.8492 622.181 79.4482 620.237 77.4488V77.45Z" fill="#0097F6"/>
<path d="M739.28 77.45C737.338 75.4569 734.925 74.3942 732.06 74.2894C729.254 74.2894 726.799 75.2161 724.762 77.0447C722.688 78.9081 721.636 81.3054 721.636 84.1705V130.404C721.636 132.363 721.27 134.241 720.548 135.983C719.83 137.719 718.803 139.241 717.497 140.508C716.171 141.791 714.609 142.832 712.853 143.604C709.535 145.062 705.348 145.176 701.812 143.669C700.1 142.942 698.585 141.968 697.308 140.771C696.046 139.595 695.02 138.136 694.257 136.437C693.499 134.748 693.114 132.953 693.114 131.1V84.5871C693.114 81.8355 692.051 79.4033 689.958 77.3565C687.87 75.3209 685.425 74.2881 682.691 74.2881C679.973 74.2881 677.54 75.2398 675.459 77.1158C673.341 79.0241 672.268 81.399 672.268 84.1692V130.426C672.361 135.205 673.306 139.764 675.076 143.976C676.845 148.189 679.319 151.929 682.429 155.089C685.543 158.257 689.255 160.784 693.461 162.6C697.675 164.424 702.333 165.348 707.305 165.348C711.899 165.348 716.359 164.498 720.559 162.824C724.765 161.151 728.503 158.769 731.669 155.743C734.825 152.727 737.396 149.11 739.31 144.992C741.231 140.854 742.206 136.319 742.206 131.514V84.5858C742.206 81.848 741.222 79.447 739.28 77.4488V77.45Z" fill="#0097F6"/>
<path d="M772.933 77.5873C770.892 75.4906 768.417 74.4279 765.576 74.4279C762.55 74.4279 759.98 75.4918 757.937 77.5885C755.905 79.679 754.873 82.1748 754.873 85.0037V155.19C754.873 158.12 755.908 160.642 757.95 162.688C759.991 164.732 762.556 165.769 765.576 165.769C768.409 165.769 770.882 164.732 772.922 162.688C774.965 160.641 776 158.119 776 155.19V85.0037C776 82.1736 774.969 79.679 772.933 77.5873Z" fill="#0097F6"/>
<path d="M149.319 132.383C153.255 111.386 116.902 61.229 84.0208 40C94.8065 71.1824 101.034 107.978 84.0208 132.383C99.7889 116.085 127.192 120.451 149.319 132.383Z" fill="#0097F6"/>
<path d="M149.319 132.383H81.4013V40L40 132.383C42.3255 144.047 66.702 166.346 93.4961 165.972C120.291 165.599 146.528 144.046 149.319 132.383Z" fill="#0097F6"/>
</g>
<defs>
<clipPath id="clip0_1519_1868">
<rect width="736" height="147" fill="white" transform="translate(40 40)"/>
</clipPath>
</defs>
</svg>
